<svg xmlns="http://www.w3.org/2000/svg" xmlns:xlink="http://www.w3.org/1999/xlink" width="309" zoomAndPan="magnify" viewBox="0 0 231.75 228.749995" height="305" preserveAspectRatio="xMidYMid meet" version="1.0"><defs><clipPath id="52f9d5ee9e"><path d="M 0 0 L 231.5 0 L 231.5 228.5 L 0 228.5 Z M 0 0 " clip-rule="nonzero"/></clipPath><clipPath id="0ab4d7ecfe"><path d="M 0.960938 0 L 230.140625 0 L 230.140625 228.5 L 0.960938 228.5 Z M 0.960938 0 " clip-rule="nonzero"/></clipPath><clipPath id="51e934430b"><path d="M 44.871094 128.34375 L 186.230469 128.34375 L 186.230469 151.59375 L 44.871094 151.59375 Z M 44.871094 128.34375 " clip-rule="nonzero"/></clipPath><clipPath id="69281056f7"><path d="M 44.871094 157.082031 L 186.230469 157.082031 L 186.230469 180.332031 L 44.871094 180.332031 Z M 44.871094 157.082031 " clip-rule="nonzero"/></clipPath><clipPath id="39b31db674"><path d="M 75.933594 48.851562 L 155.167969 48.851562 L 155.167969 122.855469 L 75.933594 122.855469 Z M 75.933594 48.851562 " clip-rule="nonzero"/></clipPath></defs><g clip-path="url(#52f9d5ee9e)"><rect x="-23.175" width="278.1" fill="#f3f3f3" y="-22.875" height="274.499994" fill-opacity="1"/></g><g clip-path="url(#0ab4d7ecfe)"><path fill="#520c21" d="M 0.960938 114.59375 C 0.960938 51.304688 52.265625 0 115.550781 0 C 178.835938 0 230.140625 51.304688 230.140625 114.59375 C 230.140625 177.878906 178.835938 229.183594 115.550781 229.183594 C 52.265625 229.183594 0.960938 177.878906 0.960938 114.59375 Z M 115.550781 227.085938 C 177.679688 227.085938 228.042969 176.722656 228.042969 114.59375 C 228.042969 52.460938 177.679688 2.097656 115.550781 2.097656 C 53.421875 2.097656 3.058594 52.460938 3.058594 114.59375 C 3.058594 176.722656 53.421875 227.085938 115.550781 227.085938 Z M 115.550781 227.085938 " fill-opacity="1" fill-rule="nonzero"/></g><path fill="#520c21" d="M 225.554688 114.59375 C 225.554688 116.390625 225.511719 118.191406 225.421875 119.988281 C 225.335938 121.789062 225.203125 123.582031 225.027344 125.375 C 224.847656 127.167969 224.628906 128.953125 224.363281 130.734375 C 224.101562 132.515625 223.792969 134.289062 223.441406 136.054688 C 223.089844 137.820312 222.695312 139.574219 222.257812 141.320312 C 221.820312 143.070312 221.339844 144.804688 220.820312 146.527344 C 220.296875 148.25 219.730469 149.957031 219.125 151.652344 C 218.519531 153.347656 217.871094 155.027344 217.183594 156.691406 C 216.492188 158.355469 215.761719 160 214.992188 161.625 C 214.222656 163.253906 213.414062 164.863281 212.566406 166.449219 C 211.71875 168.039062 210.832031 169.601562 209.90625 171.148438 C 208.980469 172.691406 208.015625 174.210938 207.015625 175.710938 C 206.015625 177.207031 204.980469 178.679688 203.90625 180.125 C 202.835938 181.570312 201.726562 182.988281 200.585938 184.378906 C 199.441406 185.773438 198.269531 187.136719 197.058594 188.46875 C 195.851562 189.804688 194.609375 191.105469 193.335938 192.378906 C 192.0625 193.652344 190.757812 194.894531 189.425781 196.101562 C 188.089844 197.3125 186.726562 198.488281 185.335938 199.628906 C 183.945312 200.773438 182.527344 201.878906 181.082031 202.953125 C 179.632812 204.023438 178.164062 205.058594 176.664062 206.0625 C 175.167969 207.0625 173.648438 208.023438 172.105469 208.949219 C 170.558594 209.875 168.992188 210.761719 167.40625 211.609375 C 165.820312 212.460938 164.210938 213.269531 162.582031 214.039062 C 160.957031 214.808594 159.3125 215.539062 157.648438 216.226562 C 155.984375 216.914062 154.304688 217.5625 152.609375 218.167969 C 150.914062 218.777344 149.207031 219.339844 147.484375 219.863281 C 145.761719 220.386719 144.027344 220.867188 142.277344 221.304688 C 140.53125 221.742188 138.777344 222.136719 137.011719 222.488281 C 135.246094 222.835938 133.472656 223.144531 131.691406 223.410156 C 129.910156 223.675781 128.125 223.894531 126.332031 224.070312 C 124.539062 224.246094 122.746094 224.378906 120.949219 224.46875 C 119.148438 224.554688 117.351562 224.601562 115.550781 224.601562 C 113.75 224.601562 111.949219 224.554688 110.152344 224.46875 C 108.355469 224.378906 106.558594 224.246094 104.769531 224.070312 C 102.976562 223.894531 101.191406 223.675781 99.410156 223.410156 C 97.628906 223.144531 95.855469 222.835938 94.089844 222.488281 C 92.324219 222.136719 90.566406 221.742188 88.820312 221.304688 C 87.074219 220.867188 85.339844 220.386719 83.617188 219.863281 C 81.894531 219.339844 80.183594 218.777344 78.492188 218.167969 C 76.796875 217.5625 75.117188 216.914062 73.453125 216.226562 C 71.789062 215.539062 70.144531 214.808594 68.515625 214.039062 C 66.890625 213.269531 65.28125 212.460938 63.695312 211.609375 C 62.105469 210.761719 60.539062 209.875 58.996094 208.949219 C 57.453125 208.023438 55.929688 207.0625 54.433594 206.0625 C 52.9375 205.058594 51.464844 204.023438 50.019531 202.953125 C 48.574219 201.878906 47.15625 200.773438 45.761719 199.628906 C 44.371094 198.488281 43.007812 197.3125 41.675781 196.101562 C 40.339844 194.894531 39.039062 193.652344 37.765625 192.378906 C 36.492188 191.105469 35.25 189.804688 34.042969 188.46875 C 32.832031 187.136719 31.65625 185.773438 30.515625 184.378906 C 29.371094 182.988281 28.265625 181.570312 27.191406 180.125 C 26.121094 178.679688 25.085938 177.207031 24.085938 175.710938 C 23.082031 174.210938 22.121094 172.691406 21.195312 171.148438 C 20.269531 169.601562 19.382812 168.039062 18.535156 166.449219 C 17.683594 164.863281 16.875 163.253906 16.105469 161.625 C 15.335938 160 14.605469 158.355469 13.917969 156.691406 C 13.230469 155.027344 12.582031 153.347656 11.976562 151.652344 C 11.367188 149.957031 10.804688 148.25 10.28125 146.527344 C 9.757812 144.804688 9.277344 143.070312 8.839844 141.320312 C 8.402344 139.574219 8.007812 137.820312 7.660156 136.054688 C 7.308594 134.289062 7 132.515625 6.734375 130.734375 C 6.472656 128.953125 6.25 127.167969 6.074219 125.375 C 5.898438 123.582031 5.765625 121.789062 5.675781 119.988281 C 5.589844 118.191406 5.542969 116.390625 5.542969 114.59375 C 5.542969 112.792969 5.589844 110.992188 5.675781 109.195312 C 5.765625 107.394531 5.898438 105.601562 6.074219 103.808594 C 6.25 102.019531 6.472656 100.230469 6.734375 98.449219 C 7 96.667969 7.308594 94.894531 7.660156 93.128906 C 8.007812 91.363281 8.402344 89.609375 8.839844 87.863281 C 9.277344 86.117188 9.757812 84.382812 10.28125 82.660156 C 10.804688 80.9375 11.367188 79.226562 11.976562 77.53125 C 12.582031 75.835938 13.230469 74.15625 13.917969 72.492188 C 14.605469 70.832031 15.335938 69.183594 16.105469 67.558594 C 16.875 65.929688 17.683594 64.324219 18.535156 62.734375 C 19.382812 61.148438 20.269531 59.582031 21.195312 58.035156 C 22.121094 56.492188 23.082031 54.972656 24.085938 53.476562 C 25.085938 51.976562 26.121094 50.507812 27.191406 49.058594 C 28.265625 47.613281 29.371094 46.195312 30.515625 44.804688 C 31.65625 43.410156 32.832031 42.050781 34.042969 40.714844 C 35.25 39.382812 36.492188 38.078125 37.765625 36.804688 C 39.039062 35.53125 40.339844 34.289062 41.675781 33.082031 C 43.007812 31.871094 44.371094 30.695312 45.761719 29.554688 C 47.15625 28.414062 48.574219 27.304688 50.019531 26.234375 C 51.464844 25.160156 52.9375 24.125 54.433594 23.125 C 55.929688 22.125 57.453125 21.160156 58.996094 20.234375 C 60.539062 19.308594 62.105469 18.421875 63.695312 17.574219 C 65.28125 16.726562 66.890625 15.914062 68.515625 15.144531 C 70.144531 14.375 71.789062 13.648438 73.453125 12.957031 C 75.117188 12.269531 76.796875 11.621094 78.492188 11.015625 C 80.183594 10.40625 81.894531 9.84375 83.617188 9.320312 C 85.339844 8.796875 87.074219 8.316406 88.820312 7.878906 C 90.566406 7.441406 92.324219 7.050781 94.089844 6.699219 C 95.855469 6.347656 97.628906 6.039062 99.410156 5.773438 C 101.191406 5.511719 102.976562 5.289062 104.769531 5.113281 C 106.558594 4.9375 108.355469 4.804688 110.152344 4.714844 C 111.949219 4.628906 113.75 4.585938 115.550781 4.585938 C 117.351562 4.585938 119.148438 4.628906 120.949219 4.714844 C 122.746094 4.804688 124.539062 4.9375 126.332031 5.113281 C 128.125 5.289062 129.910156 5.511719 131.691406 5.773438 C 133.472656 6.039062 135.246094 6.347656 137.011719 6.699219 C 138.777344 7.050781 140.53125 7.441406 142.277344 7.878906 C 144.027344 8.316406 145.761719 8.796875 147.484375 9.320312 C 149.207031 9.84375 150.914062 10.40625 152.609375 11.015625 C 154.304688 11.621094 155.984375 12.269531 157.648438 12.957031 C 159.3125 13.648438 160.957031 14.375 162.582031 15.144531 C 164.210938 15.914062 165.820312 16.726562 167.40625 17.574219 C 168.992188 18.421875 170.558594 19.308594 172.105469 20.234375 C 173.648438 21.160156 175.167969 22.125 176.664062 23.125 C 178.164062 24.125 179.632812 25.160156 181.082031 26.234375 C 182.527344 27.304688 183.945312 28.414062 185.335938 29.554688 C 186.726562 30.695312 188.089844 31.871094 189.425781 33.082031 C 190.757812 34.289062 192.0625 35.53125 193.335938 36.804688 C 194.609375 38.078125 195.851562 39.382812 197.058594 40.714844 C 198.269531 42.050781 199.441406 43.410156 200.585938 44.804688 C 201.726562 46.195312 202.835938 47.613281 203.90625 49.058594 C 204.980469 50.507812 206.015625 51.976562 207.015625 53.476562 C 208.015625 54.972656 208.980469 56.492188 209.90625 58.035156 C 210.832031 59.582031 211.71875 61.148438 212.566406 62.734375 C 213.414062 64.324219 214.222656 65.929688 214.992188 67.558594 C 215.761719 69.183594 216.492188 70.832031 217.183594 72.492188 C 217.871094 74.15625 218.519531 75.835938 219.125 77.53125 C 219.730469 79.226562 220.296875 80.9375 220.820312 82.660156 C 221.339844 84.382812 221.820312 86.117188 222.257812 87.863281 C 222.695312 89.609375 223.089844 91.363281 223.441406 93.128906 C 223.792969 94.894531 224.101562 96.667969 224.363281 98.449219 C 224.628906 100.230469 224.847656 102.019531 225.027344 103.808594 C 225.203125 105.601562 225.335938 107.394531 225.421875 109.195312 C 225.511719 110.992188 225.554688 112.792969 225.554688 114.59375 Z M 225.554688 114.59375 " fill-opacity="1" fill-rule="nonzero"/><g clip-path="url(#51e934430b)"><path fill="#cac1c1" d="M 61.421875 128.34375 L 61.421875 133.742188 L 59.414062 133.742188 L 58.929688 130.617188 C 58.898438 130.449219 58.832031 130.308594 58.734375 130.1875 C 58.632812 130.066406 58.503906 130.003906 58.34375 130.003906 L 51.101562 130.003906 L 51.101562 138.863281 L 56.300781 138.863281 C 56.457031 138.863281 56.59375 138.789062 56.71875 138.636719 C 56.839844 138.488281 56.910156 138.359375 56.921875 138.25 L 57.234375 135.855469 L 58.929688 135.855469 L 58.929688 143.519531 L 57.234375 143.519531 L 56.921875 141.136719 C 56.910156 141.019531 56.839844 140.886719 56.710938 140.742188 C 56.582031 140.597656 56.449219 140.523438 56.300781 140.523438 L 51.101562 140.523438 L 51.101562 148.835938 C 51.101562 149 51.160156 149.160156 51.277344 149.320312 C 51.390625 149.472656 51.570312 149.5625 51.816406 149.585938 L 54.089844 149.714844 L 54.089844 151.179688 L 45.152344 151.179688 L 45.152344 149.714844 L 46.949219 149.585938 C 47.1875 149.5625 47.367188 149.472656 47.488281 149.320312 C 47.605469 149.160156 47.664062 149 47.664062 148.835938 L 47.664062 130.6875 C 47.664062 130.519531 47.605469 130.355469 47.488281 130.195312 C 47.367188 130.03125 47.1875 129.945312 46.949219 129.9375 L 44.871094 129.800781 L 44.871094 128.34375 Z M 79.789062 143 C 79.789062 144.609375 79.457031 146.0625 78.789062 147.367188 C 78.125 148.667969 77.1875 149.699219 75.96875 150.457031 C 74.757812 151.214844 73.320312 151.59375 71.660156 151.59375 C 70.007812 151.59375 68.578125 151.21875 67.371094 150.464844 C 66.164062 149.710938 65.234375 148.683594 64.582031 147.386719 C 63.925781 146.09375 63.601562 144.632812 63.601562 143 C 63.601562 141.382812 63.929688 139.917969 64.585938 138.609375 C 65.246094 137.304688 66.1875 136.269531 67.414062 135.507812 C 68.636719 134.738281 70.085938 134.355469 71.757812 134.355469 C 73.453125 134.355469 74.902344 134.742188 76.097656 135.519531 C 77.292969 136.296875 78.207031 137.335938 78.835938 138.644531 C 79.472656 139.953125 79.789062 141.40625 79.789062 143 Z M 76.25 142.96875 C 76.25 141.730469 76.085938 140.570312 75.757812 139.496094 C 75.433594 138.421875 74.933594 137.546875 74.261719 136.882812 C 73.589844 136.21875 72.746094 135.886719 71.730469 135.886719 C 70.675781 135.886719 69.8125 136.21875 69.140625 136.882812 C 68.46875 137.546875 67.972656 138.421875 67.652344 139.496094 C 67.332031 140.570312 67.175781 141.730469 67.175781 142.96875 C 67.175781 144.199219 67.339844 145.351562 67.664062 146.433594 C 67.992188 147.511719 68.488281 148.382812 69.15625 149.046875 C 69.828125 149.714844 70.671875 150.046875 71.695312 150.046875 C 72.734375 150.046875 73.589844 149.714844 74.261719 149.046875 C 74.933594 148.382812 75.433594 147.515625 75.757812 146.441406 C 76.085938 145.363281 76.25 144.207031 76.25 142.96875 Z M 97.964844 149.851562 L 97.964844 151.179688 L 90.65625 151.179688 L 90.65625 149.851562 L 91.804688 149.714844 C 92.046875 149.691406 92.164062 149.554688 92.164062 149.300781 C 92.164062 149.230469 92.148438 149.164062 92.117188 149.101562 L 89.191406 144.746094 L 85.855469 149.101562 C 85.796875 149.15625 85.765625 149.246094 85.765625 149.367188 C 85.765625 149.589844 85.863281 149.707031 86.050781 149.714844 L 87.761719 149.851562 L 87.761719 151.179688 L 81.28125 151.179688 L 81.28125 149.851562 L 83.226562 149.585938 L 88.09375 143.246094 L 83.472656 136.40625 L 81.464844 136.105469 L 81.464844 134.769531 L 88.945312 134.769531 L 88.945312 136.105469 L 87.761719 136.269531 C 87.496094 136.300781 87.367188 136.445312 87.367188 136.703125 C 87.367188 136.769531 87.382812 136.828125 87.414062 136.882812 L 90.109375 140.6875 L 93.066406 136.882812 C 93.117188 136.804688 93.144531 136.726562 93.144531 136.648438 C 93.144531 136.417969 93.042969 136.292969 92.832031 136.269531 L 91.371094 136.105469 L 91.371094 134.769531 L 97.488281 134.769531 L 97.488281 136.105469 L 95.660156 136.40625 L 91.089844 142.21875 L 96.121094 149.585938 Z M 113.011719 147.972656 L 113.011719 149.910156 C 112.246094 150.324219 111.382812 150.707031 110.425781 151.0625 C 109.464844 151.417969 108.410156 151.59375 107.257812 151.59375 C 105.675781 151.59375 104.296875 151.222656 103.125 150.476562 C 101.960938 149.738281 101.058594 148.726562 100.417969 147.449219 C 99.78125 146.167969 99.464844 144.714844 99.464844 143.082031 C 99.464844 141.175781 99.84375 139.574219 100.601562 138.277344 C 101.359375 136.984375 102.363281 136.007812 103.609375 135.351562 C 104.859375 134.6875 106.207031 134.355469 107.652344 134.355469 C 109.152344 134.355469 110.40625 134.644531 111.417969 135.226562 C 112.433594 135.8125 112.941406 136.660156 112.941406 137.765625 C 112.941406 138.429688 112.734375 138.929688 112.316406 139.269531 C 111.902344 139.605469 111.441406 139.773438 110.929688 139.773438 C 110.550781 139.773438 110.222656 139.710938 109.949219 139.585938 C 109.671875 139.457031 109.429688 139.328125 109.21875 139.195312 L 109.21875 136.234375 C 108.699219 135.933594 108.222656 135.785156 107.789062 135.785156 C 106.78125 135.785156 105.914062 136.082031 105.1875 136.675781 C 104.464844 137.265625 103.90625 138.078125 103.515625 139.113281 C 103.128906 140.144531 102.9375 141.316406 102.9375 142.632812 C 102.9375 143.886719 103.148438 145.03125 103.570312 146.066406 C 103.992188 147.105469 104.621094 147.929688 105.453125 148.535156 C 106.289062 149.144531 107.328125 149.449219 108.574219 149.449219 C 109.359375 149.449219 110.109375 149.320312 110.832031 149.066406 C 111.550781 148.8125 112.277344 148.449219 113.011719 147.972656 Z M 130.910156 149.851562 L 130.910156 151.179688 L 125.871094 151.179688 L 125.421875 149.171875 C 125.421875 149.171875 125.253906 149.289062 124.917969 149.53125 C 124.578125 149.777344 124.128906 150.058594 123.578125 150.382812 C 123.023438 150.703125 122.410156 150.984375 121.738281 151.226562 C 121.070312 151.472656 120.40625 151.59375 119.738281 151.59375 C 118.507812 151.59375 117.464844 151.183594 116.605469 150.359375 C 115.746094 149.542969 115.320312 148.421875 115.320312 146.992188 C 115.320312 146.359375 115.433594 145.773438 115.660156 145.226562 C 115.886719 144.683594 116.339844 144.167969 117.019531 143.675781 C 117.703125 143.179688 118.714844 142.699219 120.0625 142.226562 C 121.40625 141.757812 123.191406 141.28125 125.421875 140.789062 L 125.421875 139.324219 C 125.421875 137.089844 124.363281 135.96875 122.25 135.96875 C 121.660156 135.96875 121.152344 136.027344 120.722656 136.140625 C 120.296875 136.25 120.003906 136.335938 119.839844 136.40625 L 119.839844 139.359375 L 117.363281 139.359375 C 117.054688 139.359375 116.765625 139.304688 116.496094 139.191406 C 116.230469 139.070312 116.09375 138.800781 116.09375 138.378906 C 116.09375 137.449219 116.453125 136.6875 117.164062 136.09375 C 117.871094 135.5 118.769531 135.066406 119.859375 134.785156 C 120.953125 134.5 122.058594 134.355469 123.175781 134.355469 C 124.582031 134.355469 125.671875 134.574219 126.449219 135.015625 C 127.226562 135.453125 127.769531 136.054688 128.082031 136.828125 C 128.390625 137.597656 128.546875 138.476562 128.546875 139.460938 L 128.546875 149 C 128.546875 149.214844 128.617188 149.386719 128.757812 149.515625 C 128.894531 149.648438 129.0625 149.726562 129.261719 149.75 Z M 125.421875 147.972656 L 125.421875 142.089844 C 123.890625 142.464844 122.675781 142.84375 121.773438 143.226562 C 120.871094 143.609375 120.195312 143.988281 119.75 144.371094 C 119.3125 144.75 119.019531 145.140625 118.878906 145.535156 C 118.742188 145.929688 118.675781 146.335938 118.675781 146.761719 C 118.675781 147.453125 118.898438 148.097656 119.347656 148.695312 C 119.796875 149.289062 120.425781 149.585938 121.234375 149.585938 C 121.6875 149.585938 122.160156 149.503906 122.644531 149.339844 C 123.132812 149.179688 123.589844 148.992188 124.003906 148.773438 C 124.429688 148.5625 124.769531 148.375 125.035156 148.210938 C 125.292969 148.050781 125.421875 147.972656 125.421875 147.972656 Z M 143.851562 146.242188 C 143.851562 147.917969 143.273438 149.226562 142.121094 150.171875 C 140.96875 151.121094 139.378906 151.59375 137.355469 151.59375 C 136.3125 151.59375 135.351562 151.484375 134.46875 151.265625 C 133.589844 151.054688 132.976562 150.875 132.632812 150.730469 L 132.632812 146.207031 L 134.359375 146.207031 L 134.777344 149.101562 C 135.121094 149.324219 135.542969 149.539062 136.046875 149.742188 C 136.550781 149.945312 137.136719 150.046875 137.804688 150.046875 C 138.777344 150.046875 139.53125 149.777344 140.066406 149.230469 C 140.597656 148.691406 140.863281 148.082031 140.863281 147.40625 C 140.863281 146.507812 140.539062 145.828125 139.894531 145.371094 C 139.253906 144.90625 138.339844 144.394531 137.152344 143.832031 L 136.703125 143.613281 C 135.464844 143.027344 134.515625 142.417969 133.855469 141.777344 C 133.199219 141.140625 132.871094 140.3125 132.871094 139.292969 C 132.871094 137.777344 133.402344 136.574219 134.460938 135.691406 C 135.523438 134.800781 137.035156 134.355469 138.996094 134.355469 C 139.996094 134.355469 140.882812 134.449219 141.664062 134.636719 C 142.445312 134.816406 143.007812 134.984375 143.351562 135.140625 L 143.351562 139.164062 L 141.578125 139.164062 L 141.3125 136.785156 C 141.066406 136.59375 140.707031 136.417969 140.230469 136.253906 C 139.753906 136.085938 139.25 136.003906 138.71875 136.003906 C 137.785156 136.003906 137.09375 136.214844 136.640625 136.644531 C 136.1875 137.070312 135.960938 137.613281 135.960938 138.277344 C 135.960938 139.042969 136.234375 139.652344 136.777344 140.101562 C 137.328125 140.550781 138.324219 141.101562 139.765625 141.757812 C 140.949219 142.296875 141.929688 142.902344 142.699219 143.574219 C 143.46875 144.246094 143.851562 145.136719 143.851562 146.242188 Z M 156.347656 149.101562 L 156.347656 150.464844 C 156.347656 150.464844 156.136719 150.558594 155.710938 150.75 C 155.28125 150.933594 154.722656 151.125 154.027344 151.3125 C 153.339844 151.5 152.582031 151.59375 151.761719 151.59375 C 150.484375 151.59375 149.558594 151.292969 148.976562 150.6875 C 148.394531 150.085938 148.105469 149.113281 148.105469 147.773438 L 148.105469 136.464844 L 145.925781 136.464844 L 145.925781 135.355469 L 148.253906 134.261719 L 149.785156 130.652344 L 151.277344 130.652344 L 151.277344 134.769531 L 156.082031 134.769531 L 156.082031 136.464844 L 151.277344 136.464844 L 151.277344 145.976562 C 151.277344 147.328125 151.503906 148.285156 151.957031 148.84375 C 152.417969 149.402344 153.101562 149.679688 154.007812 149.679688 C 154.671875 149.679688 155.226562 149.585938 155.675781 149.394531 C 156.125 149.199219 156.347656 149.101562 156.347656 149.101562 Z M 172.101562 147.40625 L 172.101562 149.484375 C 171.148438 150.070312 170.121094 150.566406 169.019531 150.980469 C 167.914062 151.390625 166.789062 151.59375 165.636719 151.59375 C 164.265625 151.59375 162.976562 151.289062 161.773438 150.675781 C 160.574219 150.058594 159.597656 149.121094 158.855469 147.871094 C 158.113281 146.617188 157.746094 145.042969 157.746094 143.152344 C 157.746094 141.378906 158.085938 139.832031 158.773438 138.515625 C 159.460938 137.195312 160.410156 136.171875 161.617188 135.445312 C 162.824219 134.71875 164.199219 134.355469 165.738281 134.355469 C 167.851562 134.355469 169.441406 135.015625 170.507812 136.332031 C 171.570312 137.640625 172.101562 139.3125 172.101562 141.339844 C 172.101562 141.449219 172.101562 141.59375 172.101562 141.777344 C 172.101562 141.960938 172.089844 142.132812 172.070312 142.289062 L 161.03125 142.289062 C 161.03125 143.148438 161.125 144.007812 161.304688 144.867188 C 161.492188 145.730469 161.800781 146.511719 162.230469 147.210938 C 162.664062 147.902344 163.242188 148.460938 163.972656 148.882812 C 164.703125 149.304688 165.621094 149.515625 166.71875 149.515625 C 167.695312 149.515625 168.644531 149.292969 169.570312 148.84375 C 170.496094 148.394531 171.339844 147.914062 172.101562 147.40625 Z M 161.21875 140.753906 L 168.699219 140.753906 L 168.699219 140.007812 C 168.699219 138.890625 168.429688 137.949219 167.886719 137.179688 C 167.351562 136.417969 166.519531 136.039062 165.390625 136.039062 C 164.269531 136.039062 163.316406 136.457031 162.53125 137.296875 C 161.746094 138.140625 161.308594 139.292969 161.21875 140.753906 Z M 186.230469 134.875 L 186.230469 138.25 L 184.902344 138.25 C 184.6875 137.992188 184.4375 137.769531 184.144531 137.589844 C 183.851562 137.40625 183.492188 137.316406 183.070312 137.316406 C 182.53125 137.316406 181.972656 137.503906 181.402344 137.882812 C 180.832031 138.257812 180.25 138.773438 179.664062 139.429688 L 179.664062 149 C 179.664062 149.476562 179.902344 149.726562 180.378906 149.75 L 182.621094 149.851562 L 182.621094 151.179688 L 174.109375 151.179688 L 174.109375 149.886719 L 175.792969 149.75 C 175.992188 149.726562 176.160156 149.648438 176.296875 149.515625 C 176.4375 149.386719 176.507812 149.214844 176.507812 149 L 176.507812 137.179688 L 174.050781 137.179688 L 174.050781 136.070312 L 178.269531 134.769531 L 179.664062 134.769531 L 179.664062 137.800781 C 179.996094 137.433594 180.414062 136.976562 180.910156 136.433594 C 181.410156 135.890625 181.941406 135.410156 182.503906 134.988281 C 183.070312 134.566406 183.621094 134.355469 184.152344 134.355469 C 184.507812 134.355469 184.886719 134.414062 185.296875 134.527344 C 185.710938 134.636719 186.019531 134.75 186.230469 134.875 Z M 186.230469 134.875 " fill-opacity="1" fill-rule="nonzero"/></g><g clip-path="url(#69281056f7)"><path fill="#cac1c1" d="M 56.058594 158.945312 C 56.058594 159.359375 55.957031 159.6875 55.75 159.925781 C 55.542969 160.164062 55.320312 160.328125 55.089844 160.429688 C 54.855469 160.53125 54.695312 160.59375 54.617188 160.617188 C 54.589844 160.582031 54.429688 160.464844 54.140625 160.269531 C 53.851562 160.066406 53.527344 159.835938 53.171875 159.585938 C 52.8125 159.332031 52.492188 159.105469 52.214844 158.910156 C 51.9375 158.710938 51.789062 158.605469 51.769531 158.597656 C 51.320312 158.828125 50.902344 159.300781 50.515625 160.007812 C 50.125 160.714844 49.929688 161.796875 49.929688 163.253906 L 49.929688 165.234375 L 53.785156 165.234375 L 53.785156 166.828125 L 49.929688 166.828125 L 49.929688 177.964844 C 49.929688 178.160156 49.996094 178.320312 50.125 178.445312 C 50.253906 178.574219 50.40625 178.640625 50.582031 178.648438 L 52.421875 178.742188 L 52.421875 179.953125 L 44.871094 179.953125 L 44.871094 178.742188 L 46.40625 178.648438 C 46.585938 178.628906 46.742188 178.558594 46.863281 178.4375 C 46.992188 178.316406 47.058594 178.160156 47.058594 177.964844 L 47.058594 166.828125 L 45.070312 166.828125 L 45.070312 165.738281 L 47.058594 165.179688 C 47.058594 164.15625 47.132812 163.308594 47.289062 162.640625 C 47.445312 161.964844 47.714844 161.257812 48.101562 160.523438 C 48.707031 159.351562 49.488281 158.484375 50.441406 157.921875 C 51.398438 157.363281 52.378906 157.082031 53.390625 157.082031 C 54.269531 157.082031 54.933594 157.265625 55.382812 157.636719 C 55.832031 158.003906 56.058594 158.441406 56.058594 158.945312 Z M 118.589844 177.027344 L 118.589844 178.796875 C 117.890625 179.175781 117.101562 179.523438 116.230469 179.847656 C 115.355469 180.171875 114.394531 180.332031 113.34375 180.332031 C 111.898438 180.332031 110.644531 179.992188 109.574219 179.3125 C 108.511719 178.640625 107.6875 177.71875 107.105469 176.550781 C 106.527344 175.382812 106.234375 174.058594 106.234375 172.570312 C 106.234375 170.832031 106.582031 169.371094 107.273438 168.1875 C 107.96875 167.007812 108.882812 166.121094 110.015625 165.519531 C 111.15625 164.914062 112.386719 164.613281 113.710938 164.613281 C 115.070312 164.613281 116.214844 164.878906 117.144531 165.40625 C 118.066406 165.941406 118.527344 166.714844 118.527344 167.722656 C 118.527344 168.328125 118.335938 168.785156 117.957031 169.09375 C 117.578125 169.402344 117.160156 169.554688 116.695312 169.554688 C 116.351562 169.554688 116.054688 169.496094 115.800781 169.382812 C 115.550781 169.265625 115.324219 169.148438 115.132812 169.027344 L 115.132812 166.328125 C 114.65625 166.054688 114.222656 165.917969 113.828125 165.917969 C 112.910156 165.917969 112.117188 166.1875 111.457031 166.730469 C 110.792969 167.269531 110.289062 168.007812 109.9375 168.953125 C 109.578125 169.890625 109.402344 170.960938 109.402344 172.164062 C 109.402344 173.304688 109.59375 174.347656 109.980469 175.289062 C 110.363281 176.238281 110.9375 176.988281 111.699219 177.542969 C 112.464844 178.097656 113.410156 178.375 114.542969 178.375 C 115.257812 178.375 115.945312 178.261719 116.601562 178.027344 C 117.261719 177.796875 117.921875 177.464844 118.589844 177.027344 Z M 186.230469 178.742188 L 186.230469 179.953125 L 179.554688 179.953125 L 179.554688 178.742188 L 180.605469 178.617188 C 180.828125 178.597656 180.941406 178.472656 180.941406 178.238281 C 180.941406 178.175781 180.921875 178.117188 180.890625 178.058594 L 178.226562 174.085938 L 175.179688 178.058594 C 175.128906 178.109375 175.105469 178.191406 175.105469 178.300781 C 175.105469 178.503906 175.1875 178.609375 175.359375 178.617188 L 176.921875 178.742188 L 176.921875 179.953125 L 171.007812 179.953125 L 171.007812 178.742188 L 172.78125 178.5 L 177.222656 172.722656 L 173.011719 166.480469 L 171.175781 166.207031 L 171.175781 164.992188 L 177.996094 164.992188 L 177.996094 166.207031 L 176.921875 166.359375 C 176.679688 166.386719 176.558594 166.519531 176.558594 166.753906 C 176.558594 166.8125 176.570312 166.867188 176.601562 166.917969 L 179.058594 170.386719 L 181.753906 166.917969 C 181.808594 166.847656 181.832031 166.777344 181.832031 166.707031 C 181.832031 166.496094 181.738281 166.378906 181.542969 166.359375 L 180.207031 166.207031 L 180.207031 164.992188 L 185.789062 164.992188 L 185.789062 166.207031 L 184.117188 166.480469 L 179.953125 171.785156 L 184.546875 178.5 Z M 186.230469 178.742188 " fill-opacity="1" fill-rule="nonzero"/></g><g clip-path="url(#39b31db674)"><path fill="#cac1c1" d="M 154.898438 90.3125 C 154.40625 89.101562 151.628906 87.976562 150.460938 88.558594 C 149.292969 89.144531 147.253906 90.328125 146.605469 89.964844 C 145.460938 89.3125 144.699219 81.769531 141.003906 75.949219 C 140.105469 74.539062 137.160156 66.285156 130.144531 61.472656 C 127.203125 59.457031 123.660156 56.699219 118.339844 56.347656 C 115.3125 56.148438 110.21875 55.765625 102.46875 56.566406 C 102.503906 54.539062 108.199219 49.671875 107.605469 49.09375 C 106.652344 48.167969 105.835938 50.09375 100.019531 51.546875 C 99.085938 51.894531 97.167969 53.757812 95.445312 53.746094 C 95.078125 53 95.078125 49.933594 92.546875 50.496094 C 91.976562 50.621094 90.203125 52.210938 89.21875 52.714844 C 87.835938 53.425781 86.464844 55.632812 85.820312 56.269531 C 85.261719 56.820312 83.59375 58.988281 82.738281 59.601562 C 77.722656 63.1875 76.320312 67.511719 75.964844 72.5625 C 75.800781 74.90625 75.960938 86.273438 86.589844 91.714844 C 87.542969 95.265625 86.316406 114.324219 85.378906 115.492188 C 84.445312 116.660156 81.21875 118.6875 80.984375 119.621094 C 80.753906 120.554688 80.429688 120.914062 81.453125 121.488281 C 82.632812 122.152344 84.707031 121.777344 85.890625 121.488281 C 88.1875 120.929688 89.519531 118.390625 89.878906 117.65625 C 90.53125 116.332031 90.328125 113.3125 90.675781 111.796875 C 91.027344 110.277344 94.355469 92.132812 94.589844 91.316406 C 96.050781 91.609375 99.757812 91.882812 102.445312 95.507812 C 103.433594 96.839844 106.558594 110.914062 107.179688 113.15625 C 107.195312 113.210938 107.949219 116.515625 107.90625 116.589844 C 107.867188 116.667969 106.75 113.804688 106.671875 113.886719 C 106.390625 114.175781 106.199219 114.183594 105.835938 114.207031 C 105.019531 114.265625 102.234375 115.550781 102.269531 116.488281 C 102.328125 118.007812 105.597656 117.339844 106.359375 117.480469 C 106.824219 117.566406 107.464844 117.125 107.839844 117.050781 C 107.53125 118.710938 105.777344 119.351562 105.890625 121.429688 C 105.945312 122.359375 107.261719 122.636719 107.585938 122.773438 C 108.160156 123.011719 111.234375 122.675781 111.96875 122.480469 C 113.199219 122.15625 113.78125 120.113281 113.199219 118.769531 C 112.695312 117.613281 112.671875 114.910156 112.554688 113.859375 C 111.105469 109.695312 108.738281 94.117188 107.566406 88.914062 C 108.875 94.398438 112.78125 112.960938 112.984375 112.914062 C 113.515625 112.914062 115.386719 108.214844 116.589844 105.210938 C 116.203125 102.523438 114.171875 97.679688 114.210938 94.582031 C 115.6875 88.816406 116.117188 86.496094 116.019531 84.632812 C 118.515625 83.632812 120.210938 82.730469 120.566406 82.371094 C 123.367188 83.003906 126.40625 91.941406 127.925781 92.757812 C 129.445312 93.578125 136.679688 98.601562 136.5625 100.585938 C 136.445312 102.574219 135.648438 109.195312 134.9375 110.117188 C 134.363281 110.863281 132.101562 111.238281 131.546875 111.871094 C 130.730469 112.804688 130.765625 113.449219 131.816406 113.914062 C 132.871094 114.382812 138.210938 114.558594 139.261719 113.503906 C 140.3125 112.457031 141.25 97.316406 141.71875 95.914062 C 142.164062 94.578125 139.15625 93.292969 138.21875 91.425781 C 137.285156 89.554688 136.058594 83.023438 135.582031 81.828125 C 135.179688 80.828125 135.519531 75.65625 133.761719 70.109375 C 135.347656 71.191406 136.164062 79.972656 136.28125 81.054688 C 136.410156 82.234375 138.359375 89.296875 138.734375 90.480469 C 139.144531 91.765625 140.839844 93.109375 141.425781 93.574219 C 142.007812 94.042969 142.691406 95.238281 142.515625 95.917969 C 142.125 97.433594 142.011719 98.777344 142.359375 99.246094 C 142.554688 99.507812 145.445312 100.097656 146.847656 99.632812 C 148.246094 99.164062 152.804688 95.367188 153.640625 94.6875 C 155.070312 93.519531 155.511719 91.824219 154.898438 90.3125 M 101.140625 53.628906 C 102.097656 52.628906 104.75 51.148438 107.003906 49.6875 C 105.367188 51.609375 102.503906 54.128906 102.132812 56.234375 C 101.902344 57.558594 102.386719 59.445312 101.394531 59.214844 C 100.691406 58.6875 100.195312 57.664062 100.167969 57.109375 C 100.125 56.289062 100.359375 54.445312 101.140625 53.628906 M 96.816406 68.222656 C 96.957031 68.1875 97.09375 68.144531 97.230469 68.097656 C 97.640625 67.960938 98.203125 67.773438 98.886719 67.773438 C 99.128906 67.773438 99.375 67.796875 99.617188 67.84375 C 100.003906 67.921875 100.148438 68.398438 100.296875 68.90625 L 100.347656 69.066406 C 100.429688 69.328125 100.453125 69.394531 100.511719 69.453125 L 100.757812 69.699219 L 100.421875 69.78125 C 99.925781 69.902344 99.511719 69.960938 99.15625 69.960938 C 98.253906 69.960938 97.789062 69.585938 97.226562 69.054688 C 97.113281 68.949219 97.042969 68.867188 96.980469 68.796875 C 96.902344 68.710938 96.84375 68.648438 96.738281 68.566406 L 96.417969 68.3125 Z M 88.59375 54.945312 C 89.003906 54.1875 91.550781 51.109375 93.128906 51.324219 C 94.5625 51.515625 94.535156 53.84375 95.082031 55.765625 C 95.605469 57.609375 93.386719 59.269531 92.742188 60.613281 C 92.101562 61.960938 93.128906 63.769531 90.582031 64.179688 C 89.6875 64.324219 89.644531 62.71875 88.535156 62.894531 C 87.761719 63.015625 87.132812 61.316406 87.132812 60.03125 C 87.132812 58.746094 88.1875 55.703125 88.59375 54.945312 M 104.421875 80.910156 C 103.242188 80.703125 96.359375 77.640625 95.082031 77.796875 C 94.511719 77.867188 94.144531 78.597656 94.203125 79.515625 C 94.265625 80.425781 94.496094 80.828125 95.785156 81.242188 C 97.070312 81.65625 97.769531 81.597656 98.878906 82.238281 C 99.992188 82.882812 100.921875 83.175781 101.449219 84.285156 C 101.976562 85.394531 102.5625 86.445312 102.503906 87.851562 C 102.445312 89.253906 102.679688 91.941406 102.796875 92.640625 C 102.914062 93.34375 102.515625 93.9375 102.09375 93.636719 C 101.667969 93.332031 97.535156 90.550781 94.445312 90.832031 C 93.546875 90.910156 92.042969 91.007812 91.105469 91.238281 C 90.171875 91.472656 88.425781 91.898438 87.542969 91.472656 C 81.269531 88.449219 76.613281 79.945312 77.183594 75.375 C 77.726562 70.976562 79.945312 72.222656 82.808594 71.484375 C 85.355469 70.832031 87.308594 69.847656 87.71875 69.617188 C 88.128906 69.382812 88.972656 68.914062 89.824219 68.914062 C 91.148438 68.914062 91.648438 70.238281 92.042969 70.492188 C 92.855469 71.015625 95.425781 71.53125 96.136719 71.835938 C 97.085938 72.246094 100.164062 73.707031 101.628906 74.117188 C 101.988281 74.21875 103.558594 74.785156 103.964844 74.875 C 104.75 75.050781 107.648438 77.332031 108.523438 77.332031 C 107.355469 77.972656 108.1875 78.863281 108.699219 79.375 C 108.824219 79.640625 108.820312 79.90625 108.699219 80.019531 C 107.789062 80.476562 107.460938 80.195312 107.171875 80.488281 C 106.871094 80.785156 105.257812 81.058594 104.421875 80.910156 M 107.152344 87.402344 C 107.171875 87.398438 107.222656 87.558594 107.304688 87.855469 C 107.261719 87.703125 107.210938 87.550781 107.152344 87.402344 M 132.835938 95.445312 C 132.570312 95.691406 128.605469 92.3125 128.125 91.914062 C 126.917969 90.917969 124.578125 86.207031 124.269531 85.375 C 124.027344 84.710938 121.9375 81.757812 120.613281 81.832031 C 118.539062 83 115.675781 83.929688 114.722656 84.332031 C 111.132812 85.851562 107.027344 86.761719 106.964844 86.175781 C 107.398438 83.984375 106.753906 82.710938 106.902344 81.316406 C 108.601562 80.679688 109.390625 80.0625 109.605469 79.710938 C 109.929688 79.527344 110.320312 79.199219 110.507812 78.976562 C 110.769531 78.671875 111.21875 78.132812 111.066406 77.609375 C 110.890625 77.003906 110.277344 76.746094 109.574219 76.101562 C 108.875 75.460938 108.242188 74.304688 107.171875 73.179688 C 106.476562 72.457031 105.703125 71.167969 105.148438 70.417969 C 104.683594 69.792969 103.917969 67.863281 104.386719 67.628906 C 104.851562 67.394531 105.40625 68.019531 106.214844 68.914062 C 106.925781 69.699219 108.550781 73 112.84375 73.121094 C 120.457031 73.335938 118.789062 69.679688 122.023438 70.316406 C 124.972656 70.898438 122.792969 77.433594 127.867188 86.855469 C 128.339844 87.730469 128.746094 89.269531 130.148438 91.53125 C 131.125 93.109375 133.042969 95.261719 132.835938 95.445312 M 152.707031 94.980469 C 152.410156 95.203125 150.28125 96.816406 150.398438 96.464844 C 150.515625 96.113281 151.691406 94.601562 151.238281 92.511719 C 150.949219 91.171875 149.945312 90.078125 148.914062 90.078125 C 147.710938 90.078125 150.640625 88.816406 151.078125 88.8125 C 151.636719 88.8125 153.605469 89.035156 154.464844 90.457031 C 155.5 92.171875 153.691406 94.238281 152.707031 94.980469 " fill-opacity="1" fill-rule="nonzero"/></g><path fill="#cac1c1" d="M 97.492188 68.773438 C 98.019531 69.269531 98.394531 69.574219 99.15625 69.574219 C 99.417969 69.574219 99.714844 69.539062 100.066406 69.464844 C 100.039062 69.386719 100.011719 69.296875 99.976562 69.183594 L 99.925781 69.015625 C 99.824219 68.679688 99.699219 68.257812 99.539062 68.226562 C 99.324219 68.183594 99.105469 68.160156 98.882812 68.160156 C 98.269531 68.160156 97.761719 68.332031 97.351562 68.46875 L 97.234375 68.503906 L 97.265625 68.539062 C 97.324219 68.601562 97.394531 68.675781 97.492188 68.773438 " fill-opacity="1" fill-rule="nonzero"/></svg>